HIERARCHY
ROOT Hips
{
	OFFSET	0.00	0.00	0.00
	CHANNELS 6 Xposition Yposition Zposition Zrotation Xrotation Yrotation
	JOINT LeftUpLeg
	{
		OFFSET	 0.126116	-0.014019	-0.065224
		CHANNELS 3 Zrotation Xrotation Yrotation
		JOINT LeftLeg
		{
			OFFSET	 0.000000	 0.000000	 0.569914
			CHANNELS 3 Zrotation Xrotation Yrotation
			JOINT LeftFoot
			{
				OFFSET	 0.000000	 0.000000	 0.544423
				CHANNELS 3 Zrotation Xrotation Yrotation
				JOINT LeftToeBase
				{
					OFFSET	 0.000000	 0.000000	 0.207117
					CHANNELS 3 Zrotation Xrotation Yrotation
					End Site
					{
						OFFSET	 0.000000	 0.000000	 0.207117
					}
				}
			}
		}
	}
	JOINT RightUpLeg
	{
		OFFSET	-0.124023	-0.008373	-0.065224
		CHANNELS 3 Zrotation Xrotation Yrotation
		JOINT RightLeg
		{
			OFFSET	 0.000000	 0.000000	 0.570047
			CHANNELS 3 Zrotation Xrotation Yrotation
			JOINT RightFoot
			{
				OFFSET	 0.000000	 0.000000	 0.544354
				CHANNELS 3 Zrotation Xrotation Yrotation
				JOINT RightToeBase
				{
					OFFSET	 0.000000	 0.000000	 0.207540
					CHANNELS 3 Zrotation Xrotation Yrotation
					End Site
					{
						OFFSET	 0.000000	 0.000000	 0.207540
					}
				}
			}
		}
	}
	JOINT Spine
	{
		OFFSET	 0.000184	-0.007763	 0.117403
		CHANNELS 3 Zrotation Xrotation Yrotation
		JOINT Spine1
		{
			OFFSET	 0.000000	 0.000000	 0.137269
			CHANNELS 3 Zrotation Xrotation Yrotation
			JOINT Spine2
			{
				OFFSET	 0.000000	 0.000000	 0.156879
				CHANNELS 3 Zrotation Xrotation Yrotation
				JOINT LeftShoulder
				{
					OFFSET	 0.080501	-0.002496	 0.160144
					CHANNELS 3 Zrotation Xrotation Yrotation
					JOINT LeftArm
					{
						OFFSET	 0.000000	 0.000000	 0.164363
						CHANNELS 3 Zrotation Xrotation Yrotation
						JOINT LeftForeArm
						{
							OFFSET	 0.000000	 0.000000	 0.364576
							CHANNELS 3 Zrotation Xrotation Yrotation
							JOINT LeftHand
							{
								OFFSET	 0.000000	 0.000000	 0.360812
								CHANNELS 3 Zrotation Xrotation Yrotation
								JOINT LeftHandIndex1
								{
									OFFSET	 0.000000	 0.000000	 0.086006
									CHANNELS 3 Zrotation Xrotation Yrotation
									JOINT LeftHandIndex2
									{
										OFFSET	 0.000000	 0.000000	 0.047237
										CHANNELS 3 Zrotation Xrotation Yrotation
										JOINT LeftHandIndex3
										{
											OFFSET	-0.004284	-0.000551	 0.038165
											CHANNELS 3 Zrotation Xrotation Yrotation
											End Site
											{
												OFFSET	-0.004284	-0.000551	 0.038165
											}
										}
									}
								}
							}
						}
					}
				}
				JOINT Neck
				{
					OFFSET	 0.000000	 0.000000	 0.176489
					CHANNELS 3 Zrotation Xrotation Yrotation
					JOINT Head
					{
						OFFSET	 0.000000	-0.001747	 0.077940
						CHANNELS 3 Zrotation Xrotation Yrotation
						End Site
						{
							OFFSET	 0.000000	-0.001747	 0.077940
						}
					}
				}
				JOINT RightShoulder
				{
					OFFSET	-0.080363	 0.000306	 0.159706
					CHANNELS 3 Zrotation Xrotation Yrotation
					JOINT RightArm
					{
						OFFSET	 0.000000	 0.000000	 0.164196
						CHANNELS 3 Zrotation Xrotation Yrotation
						JOINT RightForeArm
						{
							OFFSET	 0.000000	 0.000000	 0.365611
							CHANNELS 3 Zrotation Xrotation Yrotation
							JOINT RightHand
							{
								OFFSET	 0.000000	 0.000000	 0.360648
								CHANNELS 3 Zrotation Xrotation Yrotation
								JOINT RightHandIndex1
								{
									OFFSET	 0.000000	 0.000000	 0.069977
									CHANNELS 3 Zrotation Xrotation Yrotation
									JOINT RightHandIndex2
									{
										OFFSET	 0.000000	 0.000000	 0.052305
										CHANNELS 3 Zrotation Xrotation Yrotation
										JOINT RightHandIndex3
										{
											OFFSET	 0.009002	-0.000782	 0.042196
											CHANNELS 3 Zrotation Xrotation Yrotation
											End Site
											{
												OFFSET	 0.009002	-0.000782	 0.042196
											}
										}
									}
								}
							}
						}
					}
				}
			}
		}
	}
}
MOTION
Frames:    7
Frame Time: 0.03333334
-0.463064	-0.033027	 1.274726	 179.217900	-2.425183	 5.080552	 19.460600	-5.567739	 172.074200	-7.101495	-20.846220	-2.741223	-7.788080	 76.096570	-3.210259	-2.385833	 28.452760	 0.000004	 15.449840	 0.274478	 176.146800	 2.026111	-10.401420	 0.090898	 15.235250	 68.362670	-1.317028	 2.384659	 28.388700	-0.000001	-11.659090	 7.406696	-6.835703	-4.149077	 5.888281	-14.838080	 16.192270	 0.128592	 27.119120	-91.776290	 78.527420	-179.999900	-74.292030	 6.102638	-3.573068	 0.680185	-2.370890	-41.850780	-0.836875	-34.868450	-2.017705	-4.130319	 21.525730	 0.991547	-5.167930	 0.731704	 3.519349	-1.378229	 35.397820	-2.634230	-2.561900	 0.303376	 1.412459	-8.710052	-27.170450	-10.383560	 89.782100	 78.203830	-180.000000	-22.521660	-10.946170	-14.411280	-11.212740	-10.037330	 62.830740	 33.298250	 17.222770	 107.587300	 5.716227	 19.173190	-3.685159	 5.027444	 0.246877	-9.377972	-2.350882	 35.473990	 5.254307
-0.463198	-0.033099	 1.274489	 179.241200	-2.417644	 5.206028	 19.946560	-6.090607	 171.909700	-7.438927	-21.785870	-2.985982	-7.843743	 76.565250	-2.907103	-2.385833	 28.452760	 0.000004	 15.365140	-0.332413	 176.167700	 2.185435	-11.627200	 0.133582	 15.060080	 68.853560	-1.300399	 2.384659	 28.388700	-0.000001	-11.744110	 7.397489	-7.057663	-4.257357	 6.161315	-14.791820	 16.275780	-0.236215	 27.256490	-91.776240	 78.527420	-179.999900	-74.961620	 7.277334	 0.076171	 0.241977	-2.541744	-49.015990	-0.928263	-34.781490	-2.101888	-4.130319	 21.525730	 0.991547	-5.167930	 0.731704	 3.519349	-1.378229	 35.397820	-2.634230	-2.629051	 0.408145	 1.492381	-8.872024	-27.545570	-10.717090	 89.782080	 78.203870	-180.000000	-22.134480	-11.073850	-15.264180	-10.499860	-10.413450	 66.974330	 33.398680	 17.582130	 106.765900	 5.716227	 19.173190	-3.685159	 5.027444	 0.246877	-9.377972	-2.350882	 35.473990	 5.254307
-0.464667	-0.034112	 1.270844	 179.462500	-2.057769	 6.214778	 23.213960	-11.382150	 170.703400	-10.684890	-31.810680	-5.983571	-13.199420	 82.019530	 4.340836	-2.385833	 28.452760	 0.000004	 14.698720	-6.070232	 177.195000	 3.580670	-22.947480	 0.802690	 16.285560	 73.482380	-3.925340	 2.384659	 28.388700	-0.000001	-13.197460	 6.965694	-9.048690	-5.767125	 8.874314	-14.153510	 17.157310	-3.438122	 28.392240	-91.776080	 78.527360	 179.999900	-70.230810	 23.620060	 28.615620	-2.454796	-1.667274	-106.682000	-2.083814	-34.390430	-2.701555	-4.130319	 21.525730	 0.991547	-5.167930	 0.731704	 3.519349	-1.378229	 35.397820	-2.634230	-3.174140	 1.237175	 2.186685	-10.286750	-30.479760	-13.638910	 89.782110	 78.203890	 180.000000	-6.857568	-2.238731	-12.115270	-2.862586	-10.938730	 107.046900	 35.126710	 24.603370	 79.192980	 5.716227	 19.173190	-3.685159	 5.027444	 0.246877	-9.377972	-2.350882	 35.473990	 5.254307
-0.466624	-0.035654	 1.265272	 179.880400	-0.976542	 6.163152	 20.674290	-15.318350	 171.339300	-11.980240	-41.449160	-8.377012	-73.972950	 86.547980	 65.070640	-2.385833	 28.452760	 0.000004	 14.404470	-11.394670	-179.715500	 3.938487	-32.824440	 1.310090	 33.944510	 77.327030	-22.683310	 2.384659	 28.388700	-0.000001	-16.208730	 5.538321	-9.588671	-7.680045	 10.844530	-13.574680	 17.642200	-4.371696	 28.731850	-91.776140	 78.527400	 180.000000	-1.447125	 52.429580	-12.826050	-2.693486	-1.025721	-127.208200	-2.193442	-36.058220	-2.913519	-4.130319	 21.525730	 0.991547	-5.167930	 0.731704	 3.519349	-1.378229	 35.397820	-2.634230	-3.116886	 1.048222	 2.294397	-10.209210	-29.946470	-14.050570	 89.782170	 78.203920	 179.999900	-14.616640	 40.253710	 29.882060	-1.590018	-8.788798	 118.346600	 19.417890	 22.657810	 19.206620	 5.716227	 19.173190	-3.685159	 5.027444	 0.246877	-9.377972	-2.350882	 35.473990	 5.254307
-0.470388	-0.037543	 1.260894	-179.297400	-0.246064	 5.832413	 18.542430	-17.301630	 172.265200	-13.606270	-47.169220	-10.488430	-129.362300	 84.626440	 120.725300	-2.385833	 28.452760	 0.000004	 13.822790	-14.347410	-176.799700	 4.577338	-38.499700	 1.902678	 47.826870	 78.330070	-37.525830	 2.384659	 28.388700	-0.000001	-19.434310	 4.560933	-9.345736	-8.833439	 11.798420	-13.240430	 17.514760	-4.334566	 28.572090	-91.776140	 78.527400	 180.000000	 47.717330	 47.906800	-76.227100	-1.926952	-0.338847	-94.863300	-2.646164	-37.612860	-3.213315	-4.130319	 21.525730	 0.991547	-5.167930	 0.731704	 3.519349	-1.378229	 35.397820	-2.634230	-3.020609	 0.256432	 1.306465	-9.859271	-28.823260	-12.057340	 89.782160	 78.203870	 179.999900	-54.090150	 40.849290	 89.674650	-6.599986	-7.571387	 88.126000	-1.619184	 10.963100	 11.393620	 5.716227	 19.173190	-3.685159	 5.027444	 0.246877	-9.377972	-2.350882	 35.473990	 5.254307
-0.475368	-0.039308	 1.260098	-178.392900	-0.338549	 5.438172	 16.418090	-16.908020	 173.093900	-13.619270	-47.604070	-10.570140	-134.579500	 83.822700	 125.938500	-2.385833	 28.452760	 0.000004	 12.340670	-14.500550	-175.775400	 4.995396	-39.285780	 2.200513	 47.019420	 78.197470	-37.018960	 2.384659	 28.388700	-0.000001	-21.467920	 4.449814	-8.496306	-8.634458	 11.557250	-13.076060	 16.932030	-3.518631	 27.918570	-91.776160	 78.527400	 180.000000	 49.617780	 47.096970	-81.373820	-1.878140	 0.479390	-89.405850	-3.083863	-38.884040	-3.489618	-4.130319	 21.525730	 0.991547	-5.167930	 0.731704	 3.519349	-1.378229	 35.397820	-2.634230	-3.071967	-0.374478	 0.131573	-9.547987	-27.706900	-9.355937	 89.782130	 78.203900	 180.000000	-61.250760	 37.223820	 103.361600	-8.256120	-6.838089	 75.324040	-5.825885	 4.549475	 13.145420	 5.716227	 19.173190	-3.685159	 5.027444	 0.246877	-9.377972	-2.350882	 35.473990	 5.254307
-0.483422	-0.041308	 1.260829	-177.587800	-0.603667	 5.256982	 14.039450	-15.807980	 173.876700	-12.871440	-46.184750	-9.778358	-129.198400	 84.285020	 120.384700	-2.385833	 28.452760	 0.000004	 10.118520	-14.204450	-175.383900	 5.364041	-38.811430	 2.409815	 39.328820	 76.954340	-29.634360	 2.384659	 28.388700	-0.000001	-22.773030	 4.377235	-8.393776	-8.299462	 12.030710	-12.369970	 17.051200	-4.699735	 28.169090	-91.776150	 78.527350	 180.000000	 43.258670	 48.079060	-69.497180	-1.560020	 1.530101	-100.422000	-3.731096	-40.254180	-3.874241	-4.130319	 21.525730	 0.991547	-5.167930	 0.731704	 3.519349	-1.378229	 35.397820	-2.634230	-3.866801	 1.859481	 2.085137	-10.788690	-29.895340	-13.809920	 89.782100	 78.203870	 180.000000	-65.062570	 36.489170	 104.271500	-8.157616	-5.634963	 74.413540	-8.618792	-2.154994	 14.664570	 5.716227	 19.173190	-3.685159	 5.027444	 0.246877	-9.377972	-2.350882	 35.473990	 5.254307
